<svg width="51" height="51" viewBox="0 0 51 51" fill="none" xmlns="http://www.w3.org/2000/svg">
<circle cx="25.5" cy="25.5" r="25.5" fill="#D6F1DA"/>
<path d="M26 11C18.2805 11 12 17.2805 12 25C12 32.7195 18.2805 39 26 39C33.7195 39 40 32.7195 40 25C40 17.2805 33.7195 11 26 11ZM33.2861 20.308L24.2399 31.0772C24.1407 31.1954 24.0172 31.2909 23.8778 31.3572C23.7385 31.4235 23.5865 31.4591 23.4322 31.4615H23.414C23.2631 31.4615 23.1138 31.4297 22.976 31.3682C22.8381 31.3068 22.7147 31.217 22.6138 31.1048L18.7368 26.7971C18.6384 26.6927 18.5618 26.5696 18.5116 26.4352C18.4613 26.3007 18.4385 26.1576 18.4444 26.0142C18.4503 25.8708 18.4848 25.73 18.5458 25.6001C18.6069 25.4702 18.6933 25.3538 18.8 25.2578C18.9067 25.1618 19.0315 25.0881 19.1671 25.041C19.3027 24.9939 19.4463 24.9744 19.5895 24.9836C19.7328 24.9929 19.8727 25.0306 20.0011 25.0947C20.1296 25.1587 20.2439 25.2478 20.3374 25.3567L23.3858 28.7437L31.637 18.9228C31.8221 18.7088 32.084 18.5762 32.366 18.5538C32.648 18.5313 32.9276 18.6207 33.1442 18.8027C33.3608 18.9847 33.4972 19.2446 33.5237 19.5263C33.5503 19.8079 33.4649 20.0887 33.2861 20.308Z" fill="#47CA5C"/>
</svg>
